<?xml version="1.0" standalone="no"?>
<!DOCTYPE svg PUBLIC "-//W3C//DTD SVG 20010904//EN"
 "http://www.w3.org/TR/2001/REC-SVG-20010904/DTD/svg10.dtd">
<svg version="1.0" xmlns="http://www.w3.org/2000/svg"
 width="592.000000pt" height="592.000000pt" viewBox="0 0 592.000000 592.000000"
 preserveAspectRatio="xMidYMid meet">
<metadata>
Created by potrace 1.14, written by Peter Selinger 2001-2017
</metadata>
<g transform="translate(0.000000,592.000000) scale(0.100000,-0.100000)"
fill="#000000" stroke="none">
<path d="M3185 5823 c-41 -9 -115 -35 -119 -41 -2 -4 7 -7 20 -7 13 0 24 3 24
8 0 4 5 7 10 7 17 0 11 -18 -8 -24 -10 -3 -42 -8 -71 -10 -31 -3 -77 -17 -110
-33 -49 -25 -57 -33 -68 -70 -14 -51 -6 -54 43 -16 43 33 65 20 34 -20 -16
-20 -30 -27 -53 -26 -18 1 -43 -2 -57 -6 -18 -5 -21 -4 -11 3 11 8 6 12 -23
18 -26 4 -41 3 -46 -6 -6 -9 -9 -9 -15 0 -4 6 -13 9 -20 6 -8 -3 -29 2 -46 11
-24 12 -63 17 -146 17 -102 1 -135 -5 -100 -17 6 -2 -22 -5 -63 -6 -112 -2
-182 -22 -235 -65 -40 -34 -52 -46 -42 -46 2 0 17 11 33 25 48 42 47 28 -3
-35 -26 -33 -50 -55 -51 -49 -2 5 2 16 8 25 7 8 10 17 7 20 -12 13 -24 -34
-22 -89 2 -58 24 -107 26 -56 0 22 1 22 8 4 12 -30 3 -43 -37 -56 -21 -6 -41
-15 -47 -20 -5 -5 -16 -9 -25 -8 -10 0 -9 3 5 9 l20 9 -20 0 c-11 0 -69 -17
-129 -38 -126 -44 -180 -85 -169 -129 5 -20 3 -24 -9 -19 -12 4 -19 -6 -29
-41 -7 -25 -21 -54 -31 -64 -10 -10 -18 -32 -18 -51 0 -21 -8 -41 -21 -52 -20
-19 -20 -19 -10 9 16 41 13 42 -12 5 -13 -19 -19 -37 -14 -40 5 -4 5 -15 -2
-27 -18 -34 -3 -98 25 -111 34 -15 30 -26 -13 -39 -29 -9 -39 -9 -45 1 -16 24
-20 79 -9 104 7 14 10 28 7 30 -2 2 -10 -10 -17 -26 -8 -17 -17 -31 -21 -31
-13 0 -9 -38 7 -77 12 -29 13 -42 3 -69 -9 -24 -9 -42 -1 -69 9 -28 9 -35 -3
-35 -23 0 -6 -25 31 -44 19 -11 35 -23 35 -28 0 -6 -3 -8 -7 -6 -5 2 -25 10
-45 18 -21 8 -38 20 -38 27 0 7 -4 13 -9 13 -18 0 -18 -84 0 -114 10 -16 16
-33 13 -38 -3 -4 7 -10 21 -14 13 -3 22 -10 19 -15 -3 -5 -10 -7 -15 -4 -11 7
-7 -24 6 -46 6 -9 17 -19 25 -22 11 -4 10 -7 -7 -12 -12 -4 -24 -14 -27 -22
-5 -11 -2 -13 10 -9 14 5 15 4 4 -9 -10 -12 -10 -15 0 -15 9 0 7 -7 -6 -22
-10 -12 -13 -18 -6 -14 15 9 15 1 0 -24 -7 -10 -9 -23 -5 -27 5 -4 12 -1 17 7
9 14 14 7 11 -12 -2 -14 11 -8 25 10 12 15 12 15 7 -5 -3 -13 -10 -23 -15 -23
-5 0 -6 -4 -3 -10 3 -5 16 -10 28 -9 12 0 16 3 10 6 -20 7 -15 23 7 23 14 0
18 -5 13 -17 -4 -10 -2 -14 4 -10 12 8 25 -17 15 -27 -3 -4 -7 -17 -8 -29 -2
-14 4 -7 16 18 17 34 28 34 20 0 -11 -48 -3 -73 16 -48 12 16 13 13 14 -27 0
-31 3 -41 9 -31 7 11 11 4 16 -25 16 -86 22 -109 31 -107 6 1 8 -14 6 -33 -3
-22 0 -34 8 -34 7 0 9 -8 5 -20 -4 -13 -2 -20 6 -20 9 0 10 -3 2 -11 -10 -10
2 -64 17 -79 3 -3 6 -13 7 -22 2 -43 4 -49 13 -43 6 3 10 25 10 47 0 23 3 38
7 35 9 -10 6 -107 -5 -142 l-10 -30 -16 39 c-10 21 -19 37 -21 35 -3 -5 -12
-101 -21 -239 -4 -68 -3 -91 5 -80 6 8 11 22 11 30 0 8 13 41 29 73 20 41 30
53 35 41 3 -9 3 -21 -1 -27 -4 -8 -1 -7 9 1 16 12 17 51 3 84 -3 9 -2 25 3 35
5 10 13 56 17 103 9 109 36 211 87 330 47 108 78 157 143 226 25 27 45 55 45
61 0 7 5 13 10 13 6 0 10 6 10 13 0 8 9 24 20 37 14 17 26 21 45 16 18 -5 27
-2 31 9 5 12 15 14 40 10 23 -3 34 -1 35 8 1 6 5 1 9 -13 6 -20 8 -21 9 -6 1
20 1 20 15 0 14 -18 15 -18 22 -1 5 14 13 17 32 12 16 -4 28 -1 34 7 6 11 10
11 17 0 11 -17 22 -17 32 -1 4 8 16 14 26 15 54 3 63 5 63 18 0 8 5 18 10 21
7 4 9 -2 5 -17 -6 -22 -3 -24 25 -22 19 1 33 -3 37 -12 9 -23 25 -16 19 9 -3
12 -3 16 0 10 3 -7 10 -13 15 -13 6 0 7 5 4 10 -3 6 -1 10 4 10 6 0 11 -4 11
-10 0 -18 20 -11 21 8 0 9 2 13 5 7 2 -6 37 -9 77 -9 96 2 94 1 117 24 12 12
20 15 20 8 0 -9 4 -8 11 2 8 12 9 11 5 -6 -4 -13 -2 -21 6 -21 7 0 23 -3 36
-7 16 -5 24 -3 28 8 3 9 11 13 17 9 6 -4 28 -9 49 -10 30 -3 39 0 49 19 l13
23 7 -25 c6 -22 7 -22 8 -4 1 11 10 29 21 39 18 16 20 16 26 1 6 -15 7 -15 19
1 11 15 15 16 31 3 16 -14 17 -13 12 7 -6 21 -3 22 39 18 36 -3 42 -1 34 9 -9
11 -5 13 19 10 24 -3 30 0 30 16 0 13 7 20 19 20 12 0 21 9 25 24 3 14 15 27
26 31 25 8 90 -4 90 -17 0 -5 8 -8 18 -6 20 3 92 -31 92 -44 0 -5 5 -8 10 -8
12 0 50 -37 50 -49 0 -5 6 -11 13 -14 18 -7 50 -111 42 -136 -8 -25 11 -96 31
-119 48 -55 110 -146 139 -207 36 -75 80 -234 91 -330 l7 -59 17 49 c32 91 45
120 58 128 6 4 12 13 12 20 0 7 -4 6 -10 -3 -8 -13 -10 -12 -10 3 0 9 4 17 9
17 5 0 13 10 16 21 6 17 9 19 17 8 7 -10 8 -6 5 13 -2 15 -1 25 3 23 4 -3 10
18 14 45 5 36 10 48 20 44 9 -3 20 9 32 35 13 29 20 37 27 28 5 -7 7 0 4 21
-2 17 -1 32 3 32 4 0 6 10 4 23 -1 12 -3 22 -4 22 -2 0 -3 17 -4 37 -1 21 0
35 3 33 2 -3 10 4 18 15 16 23 47 16 39 -9 -4 -11 -1 -10 9 4 9 11 14 28 11
38 -2 9 0 17 6 17 5 0 6 6 3 13 -4 6 1 3 10 -8 15 -19 16 -18 14 15 -2 19 -7
41 -13 49 -8 11 -8 13 2 7 8 -5 12 0 12 13 0 15 -5 19 -16 14 -9 -3 -20 0 -25
8 -6 10 -2 16 14 19 12 3 22 12 22 20 0 7 6 15 13 18 6 2 12 -2 12 -9 0 -6 11
0 25 15 13 14 28 26 34 26 5 0 16 13 24 29 l14 29 -28 -8 c-17 -5 -29 -5 -29
1 0 5 9 9 19 9 13 0 18 6 16 18 -1 9 3 23 9 31 9 12 7 12 -13 2 -26 -14 -25
-11 11 42 11 15 17 35 15 45 -4 14 -5 13 -6 -4 -2 -32 -38 -61 -59 -47 -9 6
-16 18 -14 27 2 9 -4 16 -11 16 -17 0 -68 39 -52 40 16 0 15 50 -1 50 -8 0
-11 -6 -7 -17 4 -11 3 -14 -5 -9 -17 10 -15 23 8 46 12 12 18 26 13 33 -4 7 0
7 10 -2 19 -15 19 -14 21 46 1 18 -2 33 -6 33 -12 0 -49 80 -43 90 3 6 -1 20
-9 32 -13 18 -16 19 -16 5 0 -9 -4 -17 -10 -17 -14 0 -12 11 6 31 14 16 13 22
-13 78 -32 69 -48 81 -27 21 16 -45 9 -90 -12 -90 -8 0 -14 4 -14 9 0 5 -9 12
-20 16 -14 5 -19 13 -16 34 5 43 18 59 28 35 6 -13 7 -9 3 14 -3 19 0 43 6 53
6 11 8 25 6 32 -2 7 -10 -1 -17 -18 -47 -112 -60 -130 -60 -79 0 14 4 23 9 20
5 -3 11 4 15 17 5 22 -41 137 -56 137 -5 0 -8 24 -8 53 0 47 -17 134 -24 125
-2 -1 0 -28 4 -58 7 -54 -2 -104 -14 -70 -3 8 -16 48 -30 89 -14 41 -32 78
-39 83 -8 4 -20 21 -27 38 -7 17 -20 30 -30 30 -10 0 -23 7 -30 16 -22 25 -77
45 -166 58 -11 2 -26 6 -33 10 -7 4 -10 2 -9 -5 2 -7 -5 -15 -14 -17 -11 -2
-18 2 -18 10 0 8 -13 27 -30 43 -16 15 -27 31 -25 35 6 9 -67 100 -90 113 -8
4 -13 13 -9 18 3 5 2 9 -3 8 -18 -3 -36 1 -30 8 7 6 -21 32 -35 33 -5 0 -8 -7
-8 -17 0 -14 -2 -15 -17 -1 -10 9 -25 18 -33 22 -8 3 -1 4 15 1 l30 -5 -30 16
c-20 12 -30 13 -33 5 -5 -14 -39 -15 -47 -1 -3 6 2 11 12 11 28 2 -77 17 -117
17 -19 0 -44 -2 -55 -5z m125 -98 c20 -24 -7 -25 -35 -1 l-27 24 26 -5 c14 -3
30 -11 36 -18z m-235 -15 c3 -5 2 -10 -4 -10 -5 0 -13 5 -16 10 -3 6 -2 10 4
10 5 0 13 -4 16 -10z m466 -17 c13 -16 12 -17 -3 -4 -10 7 -18 15 -18 17 0 8
8 3 21 -13z m-166 -30 c27 -30 45 -80 45 -128 l0 -30 -15 29 c-8 15 -15 35
-15 43 0 9 -16 38 -35 64 -39 54 -25 69 20 22z m-298 -60 c0 -7 -2 -11 -5 -8
-2 2 -13 -6 -23 -18 -13 -17 -20 -19 -30 -10 -6 6 -18 9 -26 6 -13 -5 -13 -3
1 18 11 18 25 25 49 25 21 0 34 -5 34 -13z m95 -40 c9 -10 21 -28 27 -40 9
-18 9 -23 -2 -23 -7 0 -18 12 -24 28 l-12 27 6 -29 6 -30 -31 22 c-16 12 -37
22 -45 22 -19 0 -31 16 -22 30 11 17 80 12 97 -7z m-192 -27 c0 -3 -4 -8 -10
-11 -5 -3 -10 -1 -10 4 0 6 5 11 10 11 6 0 10 -2 10 -4z m254 -42 c3 -8 2 -12
-4 -9 -6 3 -10 10 -10 16 0 14 7 11 14 -7z m556 -14 c0 -5 -4 -10 -10 -10 -5
0 -10 5 -10 10 0 6 5 10 10 10 6 0 10 -4 10 -10z m76 -35 c4 -8 10 -12 15 -9
14 8 14 -104 1 -118 -4 -3 -22 -8 -41 -10 -19 -2 -37 -10 -39 -16 -4 -13 10
-16 22 -5 12 13 36 11 36 -2 0 -25 -20 -66 -29 -61 -5 3 -11 -1 -14 -8 -3 -8
-2 -17 4 -20 5 -2 4 -3 -3 -2 -7 2 -12 15 -11 29 1 20 -2 24 -14 20 -11 -4
-14 -2 -11 8 3 8 11 13 17 11 8 -1 9 2 4 10 -10 16 -11 78 -1 78 4 0 16 10 27
21 14 15 19 31 15 55 -4 34 11 47 22 19z m62 3 c16 -16 15 -30 -1 -53 -13 -16
-15 -14 -24 24 -11 43 -1 55 25 29z m-1743 -48 c-1 -28 -5 -53 -8 -56 -7 -7
-19 45 -12 56 3 5 1 11 -4 14 -4 3 -11 -12 -14 -35 -6 -46 -38 -102 -45 -79
-3 8 0 16 5 17 6 2 8 15 5 28 -8 45 19 91 51 86 4 0 7 4 7 9 0 6 4 10 9 10 5
0 7 -23 6 -50z m1808 -22 c34 -45 45 -69 56 -118 8 -37 7 -41 -8 -37 -9 2 -22
-2 -29 -10 -11 -11 -9 -13 9 -13 15 0 19 -4 15 -16 -3 -9 -6 -20 -6 -25 0 -20
-20 -7 -21 14 0 16 -2 18 -7 7 -4 -9 -18 -16 -31 -15 -20 0 -26 8 -38 55 -8
30 -12 70 -9 87 2 18 1 35 -5 38 -9 6 29 65 42 65 5 0 19 -15 32 -32z m-83
-138 c0 -5 -8 -10 -17 -10 -15 0 -16 2 -3 10 19 12 20 12 20 0z m-1912 -20 c6
0 12 -5 12 -11 0 -6 -8 -8 -19 -4 -10 3 -31 0 -47 -6 -16 -6 -45 -13 -64 -16
-19 -2 -37 -9 -39 -15 -2 -6 -7 -5 -12 3 -7 11 -9 10 -9 -4 0 -10 -4 -15 -10
-12 -5 3 -10 1 -10 -6 0 -7 -3 -9 -7 -5 -7 6 -83 -62 -83 -75 0 -3 10 -5 23
-5 31 3 40 -4 26 -20 -13 -15 -34 -20 -24 -5 3 5 1 13 -5 16 -6 4 -10 3 -9 -2
3 -18 -2 -33 -10 -33 -6 0 -8 9 -6 20 2 11 -1 20 -6 20 -6 0 -6 7 0 19 6 10 7
21 4 25 -3 3 -2 6 4 6 6 0 30 18 53 40 24 23 50 39 59 37 9 -2 28 3 44 10 15
7 27 11 27 8 0 -3 12 1 28 10 15 8 36 13 47 10 11 -3 26 -5 33 -5z m1872 -9
c0 -5 -7 -11 -15 -15 -15 -5 -20 5 -8 17 9 10 23 9 23 -2z m50 -11 c0 -11 -7
-20 -15 -20 -13 0 -14 4 -5 20 6 11 13 20 15 20 3 0 5 -9 5 -20z m-2161 -22
c-2 -2 -19 -16 -37 -32 -17 -17 -32 -26 -32 -22 0 12 62 67 68 61 3 -3 3 -6 1
-7z m268 -14 c-3 -3 -41 -11 -60 -13 -5 -1 -5 -6 -1 -12 4 -7 0 -9 -14 -5 -14
5 -45 -6 -97 -34 -60 -32 -73 -37 -63 -20 7 11 20 20 28 20 8 0 24 8 35 16 20
16 20 16 -2 9 -38 -11 -26 3 20 24 23 11 44 15 45 10 2 -5 8 -7 13 -3 5 3 22
8 37 10 15 3 29 10 30 15 3 6 10 5 18 -2 8 -7 13 -13 11 -15z m1773 1 c0 -14
-4 -25 -10 -25 -11 0 -14 33 -3 43 11 11 13 8 13 -18z m78 0 c-3 -3 -9 2 -12
12 -6 14 -5 15 5 6 7 -7 10 -15 7 -18z m162 -39 c0 -2 -7 -9 -15 -16 -12 -10
-15 -10 -15 4 0 9 7 16 15 16 8 0 15 -2 15 -4z m-2254 -23 c-2 -9 -11 -17 -20
-19 -17 -2 -17 -2 0 17 21 23 23 23 20 2z m2133 -26 c-2 -1 -13 -9 -24 -17
-19 -14 -19 -14 -6 3 7 9 18 17 24 17 6 0 8 -1 6 -3z m41 -32 c-12 -13 -28
-22 -33 -18 -6 3 2 16 18 29 37 29 46 22 15 -11z m107 13 c-3 -8 -6 -5 -6 6
-1 11 2 17 5 13 3 -3 4 -12 1 -19z m55 -5 c0 -16 0 -35 -1 -43 -1 -8 -2 -25
-3 -37 -1 -23 -22 -31 -33 -13 -3 5 -12 7 -20 3 -10 -3 -15 1 -15 12 0 11 5
15 15 12 8 -4 17 -2 20 3 4 6 -1 10 -10 10 -15 0 -15 2 -1 22 9 12 16 30 16
40 0 30 30 21 32 -9z m-2492 -83 c0 -5 -5 -10 -11 -10 -5 0 -7 5 -4 10 3 6 8
10 11 10 2 0 4 -4 4 -10z m2406 -55 c-1 -8 -8 -21 -16 -28 -10 -9 -11 -9 -6 1
4 7 2 12 -6 12 -8 1 -6 6 6 15 24 18 25 18 22 0z m49 -26 c-3 -4 -12 -6 -20
-3 -8 4 -13 10 -10 15 3 4 12 6 20 3 8 -4 13 -10 10 -15z m97 -41 c-7 -7 -12
-8 -12 -2 0 6 3 14 7 17 3 4 9 5 12 2 2 -3 -1 -11 -7 -17z m88 -118 c0 -5 -5
-10 -11 -10 -5 0 -7 5 -4 10 3 6 8 10 11 10 2 0 4 -4 4 -10z m80 -30 c0 -5 -4
-10 -10 -10 -5 0 -10 5 -10 10 0 6 5 10 10 10 6 0 10 -4 10 -10z m-20 -35 c0
-8 -4 -15 -10 -15 -5 0 -7 7 -4 15 4 8 8 15 10 15 2 0 4 -7 4 -15z m-2830 -90
c0 -8 -4 -15 -10 -15 -5 0 -7 7 -4 15 4 8 8 15 10 15 2 0 4 -7 4 -15z m41 -32
c-3 -20 -11 -38 -17 -40 -13 -4 -7 45 9 65 14 18 14 16 8 -25z m39 -59 c0 -8
-4 -13 -9 -10 -5 4 -11 0 -14 -6 -3 -10 -8 -10 -21 2 -17 13 -17 14 1 21 30
12 43 10 43 -7z m1830 -34 c0 -5 -7 -10 -15 -10 -8 0 -15 5 -15 10 0 6 7 10
15 10 8 0 15 -4 15 -10z m980 6 c0 -3 -4 -8 -10 -11 -5 -3 -10 -1 -10 4 0 6 5
11 10 11 6 0 10 -2 10 -4z m-2810 -32 c0 -2 -7 -4 -15 -4 -8 0 -15 4 -15 10 0
5 7 7 15 4 8 -4 15 -8 15 -10z m-65 -14 c13 -6 15 -9 5 -9 -8 0 -22 4 -30 9
-18 12 -2 12 25 0z m1625 -86 c0 -8 -19 -13 -24 -6 -3 5 1 9 9 9 8 0 15 -2 15
-3z m-1340 -679 c0 -8 -4 -15 -10 -15 -5 0 -7 7 -4 15 4 8 8 15 10 15 2 0 4
-7 4 -15z m-5 -235 c-3 -5 -12 -10 -18 -10 -7 0 -6 4 3 10 19 12 23 12 15 0z"/>
<path d="M3862 5380 c0 -14 2 -19 5 -12 2 6 2 18 0 25 -3 6 -5 1 -5 -13z"/>
<path d="M3940 5311 c0 -6 4 -13 10 -16 6 -3 7 1 4 9 -7 18 -14 21 -14 7z"/>
<path d="M3951 5512 c24 -16 59 -46 77 -68 18 -21 28 -29 23 -18 -14 30 -110
114 -129 114 -9 0 4 -13 29 -28z"/>
<path d="M4071 5380 c14 -31 19 -36 19 -24 0 6 -7 19 -16 30 -14 18 -14 18 -3
-6z"/>
<path d="M4248 5233 c-2 -5 -1 -26 3 -48 l6 -40 2 48 c1 44 -3 57 -11 40z"/>
<path d="M4220 4940 c0 -11 4 -20 8 -20 4 0 8 9 9 20 1 11 -2 20 -8 20 -5 0
-9 -9 -9 -20z"/>
<path d="M4365 4856 c8 -21 15 -48 15 -59 0 -11 3 -18 6 -14 10 10 -5 71 -21
93 -14 17 -14 15 0 -20z"/>
<path d="M4465 4600 c4 -14 12 -29 17 -35 7 -7 8 -2 3 15 -4 14 -12 30 -17 35
-7 7 -8 2 -3 -15z"/>
<path d="M3410 4380 c0 -5 7 -10 15 -10 8 0 15 5 15 10 0 6 -7 10 -15 10 -8 0
-15 -4 -15 -10z"/>
<path d="M3174 4305 c-3 -8 -4 -20 -2 -27 3 -7 7 -1 10 15 6 29 1 36 -8 12z"/>
<path d="M3220 4306 c0 -9 5 -16 10 -16 6 0 10 4 10 9 0 6 -4 13 -10 16 -5 3
-10 -1 -10 -9z"/>
<path d="M2541 4130 c-1 -12 -20 -15 -109 -15 -103 -1 -202 -18 -202 -36 0 -5
-3 -8 -7 -7 -24 6 -76 -17 -90 -40 -9 -15 -34 -45 -55 -68 -43 -45 -53 -79
-37 -121 11 -28 11 -28 22 -5 10 22 50 31 61 13 5 -8 -13 -70 -24 -81 -3 -3
-6 -21 -8 -40 -3 -45 -7 -59 -20 -93 -7 -16 -12 -33 -12 -39 0 -6 -3 -8 -7 -5
-10 11 -32 -26 -33 -55 0 -22 4 -26 21 -23 12 2 28 10 37 17 13 11 15 10 10
-9 l-6 -22 29 21 c28 21 30 21 64 5 34 -16 35 -18 30 -64 -2 -25 -8 -49 -13
-52 -5 -3 -11 -13 -15 -23 -4 -11 1 -18 19 -22 14 -4 26 -16 30 -31 3 -14 10
-25 15 -25 5 0 9 -5 9 -11 0 -19 41 -49 69 -50 14 -1 35 -3 46 -4 26 -3 161
30 215 52 14 6 39 14 56 17 25 6 44 24 86 84 31 42 63 93 72 113 10 20 30 52
47 70 16 18 29 37 29 42 0 5 12 20 26 34 25 23 26 23 55 6 16 -10 31 -26 34
-38 3 -11 20 -49 38 -84 35 -69 158 -201 188 -201 9 0 34 -9 56 -20 21 -10 58
-29 83 -40 53 -25 164 -38 174 -21 4 6 16 11 27 11 11 0 22 6 25 14 3 7 26 28
52 47 62 44 65 49 36 77 -46 47 -19 86 54 81 20 -2 51 3 68 11 l32 14 -32 39
c-17 22 -49 60 -71 85 -34 39 -37 44 -17 40 25 -7 29 4 7 22 -8 7 -15 22 -15
34 0 15 -3 17 -9 8 -7 -11 -9 -11 -14 1 -6 17 42 77 49 61 3 -8 20 -10 44 -7
26 4 40 2 40 -6 0 -6 7 -11 15 -11 9 0 15 9 15 23 0 18 2 19 11 7 8 -11 9 -9
4 10 -14 52 -94 149 -144 175 -16 8 -45 15 -65 17 -21 1 -39 5 -41 9 -3 3 -16
4 -30 1 -14 -2 -25 0 -25 4 0 5 -19 10 -42 11 -93 6 -186 7 -243 4 -33 -2 -70
0 -82 4 -18 6 -23 3 -23 -10 0 -12 -5 -15 -17 -11 -11 5 -24 -1 -36 -16 -10
-13 -16 -17 -12 -10 3 6 1 12 -4 12 -6 0 -11 -9 -11 -20 0 -23 -31 -41 -38
-22 -2 7 -10 12 -17 12 -7 0 -16 6 -19 13 -4 6 -4 2 -2 -9 3 -21 -14 -27 -30
-11 -12 11 -42 8 -46 -5 -7 -19 -39 -19 -36 0 2 10 -4 18 -12 18 -8 1 -21 2
-27 3 -7 0 -13 9 -13 20 0 10 -9 21 -20 24 -13 3 -20 14 -20 29 0 17 -3 19 -9
9 -5 -7 -11 -9 -14 -3 -9 13 -97 12 -97 -2 0 -6 -5 -3 -11 7 -5 9 -17 17 -24
17 -8 0 -15 5 -15 10 0 6 -4 10 -10 10 -5 0 -10 -7 -10 -15 0 -14 -3 -14 -24
1 -14 8 -27 23 -29 32 -4 13 -5 13 -6 2z m-234 -426 c0 -8 -20 -24 -44 -36
-23 -11 -62 -37 -85 -58 -49 -45 -93 -52 -96 -14 -1 13 2 25 7 29 5 3 7 -5 4
-16 -4 -16 -2 -20 8 -17 8 3 14 10 14 16 0 6 22 34 49 62 45 46 52 50 96 50
36 0 47 -4 47 -16z m1298 -52 c50 -10 60 -16 118 -68 40 -35 43 -41 29 -51
-20 -12 -60 2 -79 27 -13 18 -124 70 -153 72 -14 1 -40 20 -40 29 0 10 46 7
125 -9z m-1327 -81 c6 0 12 -11 12 -24 0 -20 -4 -22 -41 -19 -24 3 -43 10 -46
19 -7 18 11 31 40 28 12 -1 28 -3 35 -4z m1313 -56 c-1 -5 -9 -10 -20 -11 -13
-1 -17 4 -14 13 6 15 34 14 34 -2z m44 -5 c-3 -5 -10 -10 -16 -10 -5 0 -9 5
-9 10 0 6 7 10 16 10 8 0 12 -4 9 -10z"/>
<path d="M1990 3593 c0 -22 2 -25 10 -13 13 20 13 40 0 40 -5 0 -10 -12 -10
-27z"/>
<path d="M1800 3245 c0 -8 2 -15 4 -15 2 0 6 7 10 15 3 8 1 15 -4 15 -6 0 -10
-7 -10 -15z"/>
<path d="M1758 3203 c-2 -54 4 -88 20 -106 14 -16 17 -16 25 -2 10 18 0 75
-13 75 -5 0 -8 12 -7 26 1 15 -4 29 -10 31 -8 3 -14 -6 -15 -24z"/>
<path d="M2604 3172 c-37 -30 -79 -150 -48 -138 8 3 14 0 15 -7 1 -7 5 8 10
33 5 25 13 46 19 48 12 4 40 55 40 72 0 14 -12 12 -36 -8z"/>
<path d="M3230 3155 c0 -4 7 -20 16 -36 8 -17 16 -54 17 -84 2 -50 3 -53 27
-50 14 2 31 4 38 4 16 1 6 69 -14 92 -8 8 -14 20 -14 26 0 5 -11 15 -25 21
-14 6 -25 16 -25 22 0 5 -4 10 -10 10 -5 0 -10 -2 -10 -5z"/>
<path d="M2808 3143 c-15 -2 -44 -21 -65 -41 -21 -21 -55 -46 -77 -57 -21 -11
-43 -30 -49 -42 -6 -13 -17 -23 -24 -23 -9 0 -12 -7 -10 -17 3 -10 8 -31 12
-48 10 -45 42 -69 86 -66 30 2 38 -2 44 -18 3 -12 11 -21 16 -21 5 0 9 -10 8
-22 0 -22 -1 -22 -9 -3 -8 19 -9 19 -9 -2 -1 -12 -6 -25 -11 -28 -6 -4 -8 -10
-5 -15 3 -4 -2 -10 -10 -14 -17 -6 -20 -26 -4 -26 5 0 8 3 6 8 -8 11 114 6
146 -7 16 -6 57 -11 91 -11 77 0 89 11 90 84 1 57 20 86 56 86 50 0 109 23
144 57 39 38 45 53 21 53 -8 0 -21 15 -29 34 -8 19 -24 37 -35 41 -12 3 -21
10 -21 15 0 4 -11 11 -25 14 -14 4 -25 12 -25 18 0 6 -7 19 -16 29 -16 17 -25
16 -64 -9 -2 -2 2 -7 10 -13 13 -8 13 -10 0 -19 -11 -7 -19 -5 -30 8 -15 18
-50 19 -50 1 0 -12 -64 15 -97 41 -14 11 -28 19 -32 19 -3 -1 -18 -4 -33 -6z"/>
<path d="M1746 3050 c7 -28 12 -35 18 -29 2 2 -2 15 -10 29 l-15 25 7 -25z"/>
<path d="M1765 3000 c-3 -5 -1 -10 4 -10 6 0 11 5 11 10 0 6 -2 10 -4 10 -3 0
-8 -4 -11 -10z"/>
<path d="M2391 2850 c-1 -8 -13 -26 -28 -40 -15 -14 -23 -19 -19 -12 4 6 3 12
-3 12 -5 0 -13 -5 -17 -11 -4 -8 -9 -7 -16 2 -7 10 -8 6 -5 -14 2 -15 2 -25
-1 -22 -8 8 -34 -34 -27 -45 3 -6 -4 -14 -17 -19 -21 -9 -21 -10 -3 -11 18 -1
18 -2 4 -13 -11 -8 -19 -36 -23 -82 -6 -60 -5 -73 11 -90 19 -21 24 -96 6
-102 -5 -2 -7 -17 -5 -33 3 -18 0 -30 -7 -30 -6 0 -11 -5 -11 -11 0 -5 5 -7
10 -4 6 4 4 -11 -4 -32 -22 -57 -28 -93 -16 -93 5 0 10 -4 10 -8 0 -13 -30
-10 -31 2 0 6 -4 2 -8 -9 -5 -12 -4 -23 3 -27 8 -6 8 -8 -1 -8 -6 0 -15 5 -19
11 -4 8 -9 7 -15 -2 -6 -10 -9 -8 -9 9 0 12 -4 22 -10 22 -5 0 -20 12 -33 26
-19 20 -25 22 -30 11 -3 -7 -2 -20 3 -27 9 -14 -41 -63 -59 -58 -6 2 -31 -19
-56 -47 -31 -36 -42 -44 -38 -27 3 12 10 22 16 22 6 0 8 3 4 6 -3 4 -23 -8
-44 -25 -21 -17 -42 -31 -48 -31 -11 0 63 70 75 70 4 0 36 23 70 50 54 43 59
50 38 50 -14 0 -46 -11 -72 -25 -25 -13 -46 -23 -46 -20 0 8 -119 -38 -175
-69 -55 -30 -80 -38 -169 -51 -17 -3 -55 -17 -85 -32 -31 -15 -59 -26 -63 -25
-5 1 -8 -2 -8 -7 0 -11 -18 -18 -88 -37 -76 -20 -138 -59 -172 -109 -30 -44
-43 -51 -93 -54 -15 0 -49 -11 -75 -23 -66 -32 -66 -32 -58 -19 4 6 2 11 -3
11 -6 0 -11 -5 -11 -11 0 -5 -4 -8 -8 -5 -5 3 -26 -6 -48 -19 -33 -21 -36 -24
-16 -25 13 0 36 7 52 15 25 13 29 13 34 -1 3 -8 2 -13 -3 -10 -5 3 -11 -1 -14
-9 -4 -8 -28 -21 -54 -29 l-48 -15 42 0 c23 -1 53 3 67 9 36 13 136 20 136 9
0 -5 -17 -9 -38 -9 -21 0 -43 -5 -49 -11 -5 -5 -54 -14 -107 -19 -63 -6 -114
-17 -144 -32 -46 -21 -63 -23 -128 -15 -46 5 -65 -14 -74 -75 -4 -29 -8 -43
-9 -31 -1 16 -6 20 -21 16 -19 -5 -25 -16 -20 -38 1 -5 -2 -7 -6 -3 -13 13
-63 -32 -66 -59 -2 -19 -9 -27 -25 -28 -13 -1 -20 3 -16 9 3 6 -6 0 -20 -13
-15 -14 -27 -32 -27 -42 0 -10 -10 -26 -23 -36 -12 -10 -28 -31 -35 -46 -6
-15 -17 -25 -22 -22 -6 4 -9 1 -8 -7 2 -7 -3 -12 -9 -10 -17 3 -17 -10 0 -27
9 -11 9 -13 0 -7 -7 4 -13 2 -13 -4 0 -7 -6 -10 -14 -7 -18 7 -46 -24 -46 -51
0 -11 -7 -28 -16 -36 -8 -9 -13 -20 -10 -25 4 -5 1 -11 -4 -13 -6 -2 -12 -12
-14 -21 -1 -10 -7 -22 -12 -25 -11 -9 -34 -53 -37 -72 -2 -8 -6 -21 -10 -28
-5 -7 -9 -26 -9 -43 -1 -17 -4 -25 -8 -18 -4 6 -6 21 -4 33 4 20 4 20 -5 1 -6
-12 -10 -194 -10 -432 l-1 -413 2960 0 2960 0 0 369 c0 319 -2 370 -15 375 -8
3 -22 3 -30 0 -19 -8 -19 0 -1 34 13 26 12 29 -10 49 -14 12 -27 22 -29 23 -3
0 -8 0 -12 0 -5 0 -2 4 5 8 17 12 5 72 -14 65 -13 -5 -18 10 -16 47 1 25 -18
50 -38 50 -11 0 -20 5 -20 12 0 6 -3 8 -7 5 -3 -4 -11 -2 -18 3 -6 5 -21 11
-33 13 -12 2 -25 7 -29 11 -5 5 5 6 20 2 17 -4 26 -3 23 3 -7 11 13 9 31 -2 9
-6 11 -3 7 7 -3 8 -14 18 -24 21 -31 10 -100 81 -89 92 14 14 0 43 -28 54 -44
17 -171 4 -258 -26 -12 -4 -9 1 9 13 16 11 44 23 63 27 18 3 31 10 28 16 -6 9
7 13 31 10 7 -1 15 6 18 15 5 12 2 15 -9 10 -11 -4 -15 0 -13 11 3 17 -46 48
-82 53 -34 5 -71 -1 -65 -10 9 -15 -4 -12 -21 5 -9 8 -26 15 -40 15 -22 0 -23
2 -12 20 8 13 20 19 31 16 9 -2 15 0 11 5 -3 5 1 9 10 9 8 0 17 -6 19 -12 3
-8 6 -6 6 5 1 13 10 17 36 17 45 0 38 20 -16 44 -44 19 -130 16 -156 -6 -8 -6
-16 -8 -19 -5 -3 3 8 13 25 23 17 10 31 21 31 24 0 10 -53 6 -70 -4 -13 -8
-13 -7 -2 6 15 19 -2 35 -21 20 -7 -5 -24 -8 -40 -6 -17 1 -25 -1 -21 -7 3 -6
-2 -10 -12 -8 -11 1 -26 0 -34 -3 -87 -32 -112 -39 -116 -35 -3 2 12 12 33 22
21 10 39 19 41 20 1 1 -2 14 -7 29 -12 30 -4 34 14 9 11 -15 19 -16 76 -4 35
7 82 16 104 20 l40 7 -30 16 c-17 9 -56 25 -86 36 l-56 19 -37 -27 c-20 -16
-45 -27 -54 -25 -9 1 -20 -3 -24 -9 -6 -8 -8 -8 -8 1 0 6 -9 9 -20 6 -13 -3
-20 0 -20 8 0 11 -2 11 -10 -1 -7 -12 -10 -12 -10 -1 0 26 -119 -21 -213 -84
-28 -19 -56 -35 -61 -35 -8 0 141 102 199 137 11 6 19 16 17 22 -1 6 6 11 16
11 18 0 72 51 72 68 0 6 -18 20 -41 31 -22 12 -37 16 -34 10 5 -8 2 -8 -12 -1
-15 8 -29 5 -61 -13 -41 -23 -55 -22 -30 3 9 9 7 12 -11 12 -14 0 -20 4 -15
12 5 8 0 9 -14 6 -18 -5 -22 -2 -22 18 0 13 -4 24 -10 24 -5 0 -10 8 -10 18 0
12 -2 14 -8 4 -7 -9 -15 -7 -35 12 -26 25 -54 27 -142 12 -12 -2 -25 5 -33 18
-9 15 -12 16 -8 3 5 -14 -1 -13 -32 8 -20 14 -46 25 -57 25 -18 0 -17 -2 8
-25 28 -26 35 -45 17 -45 -5 0 -10 6 -10 13 0 8 -4 7 -10 -3 -5 -8 -10 -10
-10 -5 0 6 -15 19 -32 30 -42 24 -138 118 -138 133 0 7 -7 12 -15 12 -8 0 -15
5 -15 11 0 5 -4 7 -10 4 -5 -3 -10 -2 -10 3 0 10 -81 55 -118 67 -22 6 -21 3
12 -45 20 -29 36 -57 36 -63 0 -6 -11 5 -25 24 -13 19 -28 38 -33 43 -56 52
-70 63 -87 70 -17 6 -17 4 4 -18 35 -38 21 -41 -30 -6 -51 35 -70 39 -43 9 10
-11 14 -19 9 -18 -20 5 -85 -14 -96 -27 -9 -12 -9 -13 3 -9 17 7 20 -3 21 -92
2 -68 -11 -273 -20 -322 -2 -14 -8 -64 -13 -111 -5 -46 -16 -104 -24 -130 -9
-25 -25 -83 -37 -130 -28 -113 -65 -203 -108 -269 -20 -30 -42 -64 -48 -75 -7
-12 -13 -16 -13 -11 -1 6 -7 -5 -15 -22 -8 -18 -21 -33 -30 -33 -8 0 -15 -8
-15 -17 0 -15 -2 -16 -10 -3 -6 10 -10 11 -10 3 0 -12 -16 -35 -46 -67 -5 -6
-13 -19 -17 -29 -3 -9 -13 -17 -22 -17 -8 0 -15 -8 -15 -17 0 -14 -2 -15 -9
-4 -7 11 -12 9 -21 -10 -19 -36 -57 -68 -77 -64 -10 1 -24 -2 -30 -8 -7 -5
-13 -6 -13 -3 0 4 -9 2 -20 -4 -11 -6 -20 -17 -20 -25 0 -8 -4 -15 -10 -15
-15 0 -12 16 5 30 8 7 15 19 15 28 0 12 -5 11 -21 -6 -11 -12 -25 -19 -31 -16
-6 4 -8 3 -4 -4 3 -6 2 -13 -3 -17 -12 -7 -31 26 -31 53 0 11 7 22 15 26 8 3
15 13 15 21 0 9 -5 13 -10 10 -6 -4 -8 -11 -5 -16 4 -5 -5 -9 -20 -9 -21 0
-24 -4 -20 -22 4 -14 -1 -31 -10 -43 -9 -11 -14 -15 -11 -9 3 5 6 31 7 57 2
26 6 47 11 47 4 0 8 -6 8 -12 0 -9 3 -8 9 2 6 8 7 18 5 22 -3 5 2 16 11 25 14
14 18 14 26 2 6 -10 9 -6 9 16 0 27 19 75 20 49 0 -6 7 -11 15 -11 8 0 15 9
15 19 0 10 4 18 10 18 5 0 7 7 4 15 -5 11 1 15 18 15 28 0 77 45 57 52 -7 2
-9 10 -5 16 10 16 39 15 33 0 -3 -9 5 -13 24 -13 25 0 30 5 35 32 3 18 4 39 1
46 -7 18 43 14 54 -5 9 -13 14 15 11 57 -2 16 0 17 8 5 8 -13 11 -13 22 -1 7
8 8 11 3 8 -6 -3 -19 2 -30 10 -19 14 -18 15 14 11 30 -4 32 -3 16 8 -10 7
-21 11 -26 8 -4 -2 -4 10 1 27 5 18 7 36 4 40 -3 5 0 9 5 9 6 0 23 13 38 30
14 16 31 30 37 30 13 0 46 36 46 50 0 5 6 8 13 6 6 -3 27 13 46 35 18 22 26
37 17 33 -9 -3 -16 -1 -16 5 0 6 4 11 9 11 11 0 11 53 -1 61 -9 6 -1 39 11 39
3 0 5 20 3 45 -2 25 -8 43 -12 40 -5 -3 -7 10 -5 29 2 25 -1 33 -10 30 -7 -3
-16 -1 -20 5 -3 6 -1 11 6 11 8 0 8 4 -1 15 -7 9 -20 13 -28 10 -12 -4 -12 -1
2 20 16 24 16 25 -6 25 -19 0 -20 2 -8 10 8 5 11 10 6 10 -6 0 -5 5 2 12 18
18 15 38 -5 31 -12 -3 -10 1 5 12 13 9 27 27 33 39 10 24 26 50 51 85 10 13
16 27 13 31 -3 4 3 11 12 14 13 5 14 9 5 15 -10 6 -10 15 -2 35 13 34 13 49 1
41 -6 -3 -5 9 1 27 13 42 17 80 9 93 -3 6 -6 24 -6 40 -2 99 -6 116 -23 123
-11 5 -18 19 -18 42 -1 19 -6 46 -12 60 -5 14 -8 28 -6 31 2 4 5 27 5 53 1 25
6 46 11 46 5 0 6 5 3 10 -3 6 -15 10 -26 10 -11 0 -19 7 -19 16 0 12 4 14 13
7 22 -18 55 -22 61 -7 3 8 1 14 -4 14 -5 0 -17 17 -27 38 -9 20 -28 48 -40 62
-13 14 -23 27 -23 31 0 3 -7 6 -15 6 -11 0 -14 -7 -10 -21 5 -18 3 -17 -10 4
-10 15 -14 17 -11 7 3 -10 6 -25 6 -33 0 -11 6 -13 20 -9 11 3 20 2 20 -3 0
-5 -9 -12 -20 -15 -11 -3 -20 -1 -20 4 0 5 -4 9 -10 9 -5 0 -10 -7 -10 -16 0
-8 -4 -13 -10 -9 -5 3 -18 -3 -29 -14 -19 -19 -36 -22 -57 -8 -6 3 -31 3 -55
-1 -36 -6 -45 -12 -47 -31 -4 -26 -23 -26 -102 4 -36 14 -64 16 -141 11 -75
-5 -103 -3 -133 9 -39 17 -100 14 -138 -6 -10 -5 -37 -13 -62 -18 -41 -7 -43
-7 -38 13 3 12 9 27 15 34 6 8 6 12 -2 12 -6 0 -11 -3 -11 -7 0 -5 -11 -9 -25
-9 -14 -1 -25 2 -25 6 0 5 -16 6 -35 3 -24 -4 -35 -2 -35 6 0 7 -5 9 -10 6 -6
-4 -10 -3 -9 2 4 24 -2 35 -17 29 -12 -5 -15 -2 -10 10 5 14 4 15 -9 4 -13
-10 -15 -9 -15 8 0 12 -5 24 -10 27 -6 4 -8 11 -5 16 4 5 1 9 -4 9 -6 0 -11
12 -11 28 0 19 -3 23 -9 13 -7 -11 -9 -11 -14 0 -4 11 -6 11 -6 -1z m759 -355
c10 -12 9 -16 -4 -21 -9 -3 -16 -13 -16 -22 0 -12 -3 -13 -12 -4 -7 7 -16 12
-22 12 -5 0 -6 -3 -3 -7 7 -7 -30 -36 -49 -39 -6 -1 -21 -5 -33 -9 -12 -4 -21
-2 -21 4 0 6 4 11 9 11 5 0 7 14 4 31 -3 22 -1 30 8 27 7 -2 35 4 63 13 64 22
61 22 76 4z m-370 -25 c0 -5 -5 -10 -11 -10 -5 0 -7 5 -4 10 3 6 8 10 11 10 2
0 4 -4 4 -10z m80 -6 c0 -7 -16 -14 -35 -16 -28 -3 -35 -1 -35 13 0 14 8 17
35 16 19 -1 35 -7 35 -13z m121 6 c5 0 9 -11 9 -25 0 -27 -23 -34 -37 -12 -4
8 -17 17 -28 21 l-20 8 20 8 c11 5 26 7 33 4 8 -2 18 -4 23 -4z m279 -39 c0
-5 8 -11 17 -13 9 -2 17 -13 18 -27 4 -48 -91 -60 -177 -23 -38 16 -46 26 -29
36 5 4 11 1 13 -6 3 -9 14 -8 40 5 20 9 44 17 55 17 10 0 25 5 33 10 19 12 30
13 30 1z m-1178 -280 c-8 -4 -13 -11 -13 -15 3 -24 0 -29 -11 -18 -13 13 5 42
26 42 7 0 6 -4 -2 -9z m-58 -20 c3 -5 -1 -11 -9 -14 -9 -4 -12 -1 -8 9 6 16
10 17 17 5z m1446 -16 c0 -8 -7 -15 -15 -15 -13 0 -14 3 -3 15 16 18 18 18 18
0z m30 -5 c5 8 7 1 6 -18 -1 -34 -11 -51 -13 -24 -1 9 -3 26 -6 37 -2 11 -2
14 0 6 4 -11 7 -11 13 -1z m-270 -10 c8 -1 22 -4 30 -7 8 -4 17 -7 20 -8 28
-10 40 -19 37 -29 -3 -6 6 -11 18 -11 15 0 21 5 18 15 -3 10 -1 9 7 -2 6 -10
19 -18 28 -18 9 0 23 -9 30 -20 10 -17 10 -20 -4 -20 -8 0 -12 5 -9 10 3 6 2
10 -4 10 -5 0 -16 3 -24 6 -11 4 -13 -1 -9 -22 4 -20 2 -25 -8 -19 -9 6 -10 2
-5 -15 6 -19 4 -22 -9 -17 -10 4 -16 1 -16 -9 0 -8 5 -12 10 -9 6 3 10 2 10
-3 0 -14 -42 -23 -56 -11 -8 7 -14 7 -19 -1 -9 -15 -37 -12 -76 7 -18 9 -44
17 -57 18 -13 0 -27 7 -31 14 -7 11 -11 9 -20 -5 -10 -19 -10 -19 -11 0 0 15
-5 17 -27 12 -37 -9 -53 -10 -85 -3 -18 4 -28 1 -29 -6 0 -9 -2 -8 -6 1 -7 17
-23 15 -23 -4 0 -8 -4 -13 -9 -9 -5 3 -12 2 -15 -3 -2 -4 -59 -6 -125 -5 -93
3 -121 1 -122 -9 0 -7 -4 -4 -9 7 -7 16 -9 17 -9 3 -1 -26 -18 -31 -43 -14
-12 9 -30 16 -40 16 -10 0 -18 5 -18 10 0 6 -11 10 -25 10 -14 0 -25 -5 -25
-12 0 -6 -2 -9 -5 -6 -11 10 7 37 21 31 7 -3 17 2 20 11 9 23 24 20 21 -5 -1
-12 4 -24 11 -26 8 -3 10 1 6 11 -3 9 -1 22 5 30 6 7 8 16 5 19 -3 3 -3 11 1
17 6 9 9 9 15 -1 7 -10 14 -8 37 6 15 11 38 18 50 16 12 -1 32 3 44 10 13 6
52 13 88 16 36 2 82 5 101 8 19 3 64 9 100 14 54 7 176 8 240 1z m124 -11 c-3
-5 -10 -7 -15 -3 -5 3 -7 10 -3 15 3 5 10 7 15 3 5 -3 7 -10 3 -15z m470 13
c2 -4 -9 -9 -25 -10 -19 -2 -28 2 -24 8 7 12 42 13 49 2z m-1664 -19 c13 -11
16 -19 9 -24 -7 -4 13 -36 54 -84 56 -65 65 -80 56 -96 -5 -11 -8 -23 -5 -28
3 -5 -1 -14 -9 -21 -8 -7 -15 -20 -16 -29 -1 -9 -6 0 -13 19 -7 19 -18 49 -25
65 -8 17 -20 45 -28 63 -8 18 -18 30 -24 27 -5 -4 -9 0 -9 7 0 11 -2 10 -9 0
-15 -25 -29 66 -15 102 8 20 9 20 34 -1z m1758 -8 c8 -16 7 -22 -4 -22 -7 0
-11 4 -8 9 3 4 2 13 -2 19 -5 8 -8 8 -13 0 -5 -8 -13 -7 -27 3 -18 14 -17 15
13 14 22 -1 34 -7 41 -23z m-445 -39 c4 4 7 2 7 -4 0 -13 -30 -17 -30 -4 0 4
-3 18 -5 32 -5 24 -5 24 8 -3 7 -15 16 -24 20 -21z m352 34 c-28 -12 -37 -12
-30 0 3 6 16 10 28 9 21 0 21 -1 2 -9z m-1985 -40 c0 -5 -5 -10 -11 -10 -5 0
-7 5 -4 10 3 6 8 10 11 10 2 0 4 -4 4 -10z m63 -35 c-3 -9 -8 -14 -10 -11 -3
3 -2 9 2 15 9 16 15 13 8 -4z m624 -82 c-8 -7 -37 9 -31 19 3 5 12 4 20 -3 8
-6 13 -14 11 -16z m1030 -375 c-3 -8 -6 -5 -6 6 -1 11 2 17 5 13 3 -3 4 -12 1
-19z m1898 -208 c3 -5 -1 -10 -9 -10 -9 0 -16 5 -16 10 0 6 4 10 9 10 6 0 13
-4 16 -10z m-2095 -144 c0 -2 -7 -7 -16 -10 -8 -3 -12 -2 -9 4 6 10 25 14 25
6z m2263 -43 c3 -5 -6 -8 -19 -8 -13 0 -24 3 -24 8 0 4 9 7 19 7 11 0 22 -3
24 -7z m-2353 -133 c-8 -5 -22 -9 -30 -9 -10 0 -8 3 5 9 27 12 43 12 25 0z
m10 -20 c0 -5 -5 -10 -11 -10 -5 0 -7 5 -4 10 3 6 8 10 11 10 2 0 4 -4 4 -10z
m2500 -34 c0 -2 -7 -7 -16 -10 -8 -3 -12 -2 -9 4 6 10 25 14 25 6z m-2610 -10
c0 -3 -4 -8 -10 -11 -5 -3 -10 -1 -10 4 0 6 5 11 10 11 6 0 10 -2 10 -4z
m-243 -238 c-3 -8 -6 -5 -6 6 -1 11 2 17 5 13 3 -3 4 -12 1 -19z m23 -28 c0
-5 -5 -10 -11 -10 -5 0 -7 5 -4 10 3 6 8 10 11 10 2 0 4 -4 4 -10z"/>
<path d="M3041 2454 c0 -11 3 -14 6 -6 3 7 2 16 -1 19 -3 4 -6 -2 -5 -13z"/>
<path d="M3330 2021 c0 -5 7 -12 16 -15 14 -5 15 -4 4 9 -14 17 -20 19 -20 6z"/>
<path d="M3738 2150 c-18 -16 -28 -30 -21 -30 11 0 63 45 63 55 0 10 -11 4
-42 -25z"/>
<path d="M3630 2029 l-25 -20 25 7 c31 8 33 10 29 23 -2 5 -15 1 -29 -10z"/>
<path d="M4428 1913 c7 -3 16 -2 19 1 4 3 -2 6 -13 5 -11 0 -14 -3 -6 -6z"/>
<path d="M1085 1820 c-35 -17 -36 -18 -10 -13 17 3 39 12 50 19 28 20 6 17
-40 -6z"/>
<path d="M4702 1808 c9 -13 24 -25 34 -27 16 -3 17 -1 5 13 -7 9 -18 13 -24 9
-6 -4 -8 0 -4 10 4 12 1 17 -10 17 -14 0 -14 -2 -1 -22z"/>
<path d="M4875 1630 c3 -5 8 -10 11 -10 2 0 4 5 4 10 0 6 -5 10 -11 10 -5 0
-7 -4 -4 -10z"/>
<path d="M5238 1523 c6 -2 18 -2 25 0 6 3 1 5 -13 5 -14 0 -19 -2 -12 -5z"/>
<path d="M5338 1413 c7 -3 16 -2 19 1 4 3 -2 6 -13 5 -11 0 -14 -3 -6 -6z"/>
<path d="M375 1381 c-3 -5 -2 -12 3 -15 5 -3 9 1 9 9 0 17 -3 19 -12 6z"/>
<path d="M3253 936 c1 -11 9 -21 17 -23 10 -3 11 -2 4 4 -6 4 -14 15 -17 23
-5 11 -6 9 -4 -4z"/>
<path d="M3130 856 c0 -2 8 -10 18 -17 15 -13 16 -12 3 4 -13 16 -21 21 -21
13z"/>
<path d="M3271 774 c0 -11 3 -14 6 -6 3 7 2 16 -1 19 -3 4 -6 -2 -5 -13z"/>
<path d="M3197 723 c-4 -3 -7 -15 -7 -26 0 -25 9 -17 15 12 4 22 2 25 -8 14z"/>
<path d="M3096 703 c-6 -14 -5 -15 5 -6 7 7 10 15 7 18 -3 3 -9 -2 -12 -12z"/>
<path d="M3120 680 c0 -5 5 -10 11 -10 5 0 7 5 4 10 -3 6 -8 10 -11 10 -2 0
-4 -4 -4 -10z"/>
</g>
</svg>
